<?xml version="1.0" encoding="utf-8"?>
<!-- Generator: Adobe Illustrator 23.1.0, SVG Export Plug-In . SVG Version: 6.00 Build 0)  -->
<svg version="1.1" id="Capa_1" xmlns="http://www.w3.org/2000/svg" xmlns:xlink="http://www.w3.org/1999/xlink" x="0px" y="0px"
	 viewBox="0 0 199.43 199.43" style="enable-background:new 0 0 199.43 199.43;" xml:space="preserve">
<style type="text/css">
	.st0{clip-path:url(#SVGID_2_);}
	.st1{clip-path:url(#SVGID_4_);fill:#CB7A0A;}
	.st2{fill:#004265;}
	.st3{clip-path:url(#SVGID_6_);}
	.st4{clip-path:url(#SVGID_8_);fill:#CB7A0A;}
	.st5{clip-path:url(#SVGID_10_);}
	.st6{clip-path:url(#SVGID_12_);fill:#CB7A0A;}
	.st7{clip-path:url(#SVGID_14_);fill:#CB7A0A;}
	.st8{fill:none;}
</style>
<g>
	<g>
		<defs>
			<rect id="SVGID_1_" y="8.49" width="199.43" height="199.43"/>
		</defs>
		<clipPath id="SVGID_2_">
			<use xlink:href="#SVGID_1_"  style="overflow:visible;"/>
		</clipPath>
		<g class="st0">
			<g>
				<defs>
					<rect id="SVGID_3_" x="88.98" y="27.77" width="6.64" height="19.02"/>
				</defs>
				<clipPath id="SVGID_4_">
					<use xlink:href="#SVGID_3_"  style="overflow:visible;"/>
				</clipPath>
				<rect x="88.98" y="27.78" class="st1" width="6.64" height="19.02"/>
			</g>
		</g>
	</g>
	<rect x="75.4" y="40.15" class="st2" width="20.23" height="6.64"/>
	<g>
		<defs>
			<rect id="SVGID_5_" y="8.49" width="199.43" height="199.43"/>
		</defs>
		<clipPath id="SVGID_6_">
			<use xlink:href="#SVGID_5_"  style="overflow:visible;"/>
		</clipPath>
		<g class="st3">
			<g>
				<defs>
					<rect id="SVGID_7_" x="102.23" y="53.14" width="6.64" height="19.02"/>
				</defs>
				<clipPath id="SVGID_8_">
					<use xlink:href="#SVGID_7_"  style="overflow:visible;"/>
				</clipPath>
				<rect x="102.23" y="53.14" class="st4" width="6.64" height="19.02"/>
			</g>
		</g>
	</g>
	<rect x="102.23" y="53.14" class="st2" width="20.23" height="6.64"/>
	<rect x="102.23" y="15.61" class="st2" width="6.64" height="31.19"/>
	<g>
		<defs>
			<rect id="SVGID_9_" y="8.49" width="199.43" height="199.43"/>
		</defs>
		<clipPath id="SVGID_10_">
			<use xlink:href="#SVGID_9_"  style="overflow:visible;"/>
		</clipPath>
		<g class="st5">
			<g>
				<defs>
					<rect id="SVGID_11_" x="102.23" y="40.15" width="31.3" height="6.64"/>
				</defs>
				<clipPath id="SVGID_12_">
					<use xlink:href="#SVGID_11_"  style="overflow:visible;"/>
				</clipPath>
				<rect x="102.23" y="40.15" class="st6" width="31.3" height="6.64"/>
			</g>
		</g>
	</g>
	<rect x="88.98" y="53.14" class="st2" width="6.64" height="31.19"/>
	<g>
		<g>
			<defs>
				<rect id="SVGID_13_" x="64.33" y="53.14" width="31.3" height="6.64"/>
			</defs>
			<clipPath id="SVGID_14_">
				<use xlink:href="#SVGID_13_"  style="overflow:visible;"/>
			</clipPath>
			<rect x="64.33" y="53.14" class="st7" width="31.3" height="6.64"/>
		</g>
	</g>
	<path class="st2" d="M99.02,86.27c-19.92,0-36.12-16.2-36.12-36.12c0-19.92,16.2-36.12,36.12-36.12s36.12,16.2,36.12,36.12
		C135.14,70.07,118.94,86.27,99.02,86.27 M99.02,17.92c-17.77,0-32.23,14.46-32.23,32.23c0,17.77,14.46,32.23,32.23,32.23
		s32.23-14.46,32.23-32.23C131.25,32.38,116.8,17.92,99.02,17.92"/>
	<polygon class="st2" points="51.76,123.1 51.72,103.26 42.95,120.55 41.3,120.55 32.57,103.26 32.57,123.1 29.96,123.1 
		29.96,99.03 33.36,99.03 42.16,116.36 50.93,99.03 54.3,99.03 54.3,123.1 	"/>
	<path class="st2" d="M77.54,115.08H62.76c0.48,3.54,3.06,5.78,6.57,5.78c2.24,0,4.19-0.79,5.61-2.27l1.48,1.58
		c-1.72,1.93-4.26,3.03-7.29,3.03c-5.33,0-9.01-3.75-9.01-9.15c0-5.4,3.71-9.15,8.97-9.15C74.93,104.87,77.82,108.93,77.54,115.08
		 M75.14,112.88c-0.17-3.47-2.51-5.67-6.05-5.67c-3.44,0-5.91,2.24-6.33,5.67H75.14z"/>
	<path class="st2" d="M99.48,123.09H96.8v-3.88c-1.34,2.54-3.82,4.02-7.05,4.02c-5.16,0-8.73-3.82-8.73-9.21
		c0-5.43,3.58-9.18,8.7-9.18c3.23,0,5.74,1.48,7.08,4.06V97.58h2.68V123.09z M96.8,114.09c0-3.95-2.72-6.81-6.53-6.81
		c-3.85,0-6.57,2.85-6.57,6.81c0,3.92,2.72,6.74,6.57,6.74C94.08,120.83,96.8,118.01,96.8,114.09"/>
	<path class="st2" d="M109.93,99.78c0,1.07-0.76,1.86-1.75,1.86c-1,0-1.75-0.79-1.75-1.86c0-1.07,0.76-1.86,1.75-1.86
		C109.18,97.93,109.93,98.72,109.93,99.78 M106.87,104.97h2.65v18.12h-2.65V104.97z"/>
	<path class="st2" d="M130.87,107.59l-1.48,1.89c-1.38-1.31-3.2-2.1-5.4-2.1c-3.75,0-6.43,2.72-6.43,6.67s2.68,6.7,6.43,6.7
		c2.37,0,4.33-0.83,5.6-2.34l1.55,1.65c-1.62,1.96-4.13,3.13-7.25,3.13c-5.26,0-8.97-3.75-8.97-9.15s3.75-9.15,8.97-9.15
		C126.82,104.87,129.22,105.87,130.87,107.59"/>
	<path class="st2" d="M146.96,120.31c-1.44,1.96-3.75,2.92-6.64,2.92c-3.75,0-6.15-2.41-6.15-5.54c0-3.16,2.51-5.16,6.77-5.19h5.95
		v-1.06c0-2.65-1.65-4.23-4.85-4.23c-1.99,0-3.85,0.76-5.74,2.06l-1.13-1.96c2.34-1.55,4.3-2.44,7.39-2.44
		c4.47,0,6.95,2.37,6.98,6.26l0.04,11.97h-2.61V120.31z M146.93,116.84v-2.17h-5.64c-3.02,0-4.61,0.93-4.61,2.92
		c0,1.99,1.62,3.3,4.16,3.3C143.9,120.89,146.24,119.35,146.93,116.84"/>
	<rect x="156.42" y="97.58" class="st2" width="2.68" height="25.51"/>
	<path class="st2" d="M33.47,143.51c-0.52,0.03-1.07,0.07-1.62,0.07h-6.4v7.6h-2.75v-24.07h9.15c6.02,0,9.49,2.96,9.49,8.08
		c0,3.99-1.93,6.67-5.4,7.81l5.64,8.18h-3.13L33.47,143.51z M31.86,140.93c4.37,0,6.84-1.93,6.84-5.67c0-3.64-2.47-5.5-6.84-5.5
		h-6.4v11.17H31.86z"/>
	<path class="st2" d="M63.49,143.16H48.71c0.48,3.54,3.06,5.78,6.57,5.78c2.24,0,4.19-0.79,5.6-2.27l1.48,1.58
		c-1.72,1.93-4.26,3.03-7.29,3.03c-5.33,0-9.01-3.75-9.01-9.15s3.71-9.15,8.97-9.15C60.88,132.95,63.76,137.01,63.49,143.16
		 M61.08,140.96c-0.17-3.47-2.51-5.67-6.05-5.67c-3.44,0-5.91,2.23-6.33,5.67H61.08z"/>
	<path class="st2" d="M79.38,134.6l-1.03,2.13c-1.41-0.89-3.23-1.48-4.92-1.48c-2.03,0-3.58,0.72-3.58,2.41
		c0,4.02,10.11,1.96,10.11,8.46c0,3.58-3.16,5.16-6.64,5.16c-2.58,0-5.23-0.9-6.94-2.55l1.03-2.03c1.55,1.44,3.89,2.3,6.02,2.3
		c2.13,0,3.85-0.79,3.89-2.58c0.1-4.37-10.04-2.13-10.01-8.56c0-3.47,2.99-4.92,6.29-4.92C75.76,132.95,77.86,133.57,79.38,134.6"/>
	<path class="st2" d="M100.66,143.16H85.87c0.48,3.54,3.06,5.78,6.57,5.78c2.24,0,4.19-0.79,5.6-2.27l1.48,1.58
		c-1.72,1.93-4.26,3.03-7.29,3.03c-5.33,0-9.01-3.75-9.01-9.15s3.71-9.15,8.97-9.15C98.05,132.95,100.93,137.01,100.66,143.16
		 M98.25,140.96c-0.17-3.47-2.51-5.67-6.05-5.67c-3.44,0-5.91,2.23-6.33,5.67H98.25z"/>
	<path class="st2" d="M117.2,148.39c-1.44,1.96-3.75,2.92-6.64,2.92c-3.75,0-6.15-2.41-6.15-5.54c0-3.16,2.51-5.16,6.77-5.19h5.95
		v-1.06c0-2.65-1.65-4.23-4.85-4.23c-1.99,0-3.85,0.76-5.74,2.06l-1.13-1.96c2.34-1.55,4.3-2.44,7.39-2.44
		c4.47,0,6.94,2.37,6.98,6.26l0.03,11.96h-2.61V148.39z M117.16,144.92v-2.17h-5.64c-3.03,0-4.61,0.93-4.61,2.92
		c0,1.99,1.62,3.3,4.16,3.3C114.14,148.97,116.47,147.43,117.16,144.92"/>
	<path class="st2" d="M129.16,137.08c1.2-2.65,3.44-4.09,6.5-4.13v2.72c-3.82-0.07-6.19,2.3-6.5,5.88v9.63h-2.68v-18.12h2.68V137.08
		z"/>
	<path class="st2" d="M154.09,135.67l-1.48,1.89c-1.38-1.31-3.2-2.1-5.4-2.1c-3.75,0-6.43,2.72-6.43,6.67c0,3.95,2.68,6.7,6.43,6.7
		c2.37,0,4.33-0.83,5.6-2.34l1.55,1.65c-1.62,1.96-4.13,3.13-7.26,3.13c-5.26,0-8.97-3.75-8.97-9.15c0-5.4,3.75-9.15,8.97-9.15
		C150.03,132.95,152.44,133.95,154.09,135.67"/>
	<path class="st2" d="M176.71,140v11.18h-2.68v-10.45c0-3.2-1.93-5.09-5.12-5.09c-3.85,0.03-6.12,2.75-6.12,6.64v8.91h-2.68v-25.51
		h2.68v11.45c1.24-2.82,3.71-4.13,7.05-4.16C174.17,132.95,176.71,135.63,176.71,140"/>
	<rect y="8.49" class="st8" width="199.43" height="199.43"/>
	<rect y="8.49" class="st8" width="199.43" height="199.43"/>
</g>
</svg>
