<svg xmlns="http://www.w3.org/2000/svg" xml:space="preserve" viewBox="0 0 199.43 199.43"><defs><path id="a" d="M0 8.49h199.43v199.43H0z"/><path id="o" fill="none" d="M0 8.49h199.43v199.43H0z"/></defs><clipPath id="b"><use href="#a" overflow="visible"/></clipPath><g clip-path="url(#b)"><defs><path id="c" d="M88.98 27.77h6.64v19.02h-6.64z"/></defs><clipPath id="d"><use href="#c" overflow="visible"/></clipPath><path fill="#cb7a0a" d="M88.98 27.78h6.64V46.8h-6.64z" clip-path="url(#d)"/></g><path fill="#004265" d="M75.4 40.15h20.23v6.64H75.4z"/><defs><use id="e" href="#a"/></defs><clipPath id="f"><use href="#e" overflow="visible"/></clipPath><g clip-path="url(#f)"><defs><path id="g" d="M102.23 53.14h6.64v19.02h-6.64z"/></defs><clipPath id="h"><use href="#g" overflow="visible"/></clipPath><path fill="#cb7a0a" d="M102.23 53.14h6.64v19.02h-6.64z" clip-path="url(#h)"/></g><path fill="#004265" d="M102.23 53.14h20.23v6.64h-20.23zm0-37.53h6.64V46.8h-6.64z"/><defs><use id="i" href="#a"/></defs><clipPath id="j"><use href="#i" overflow="visible"/></clipPath><g clip-path="url(#j)"><defs><path id="k" d="M102.23 40.15h31.3v6.64h-31.3z"/></defs><clipPath id="l"><use href="#k" overflow="visible"/></clipPath><path fill="#cb7a0a" d="M102.23 40.15h31.3v6.64h-31.3z" clip-path="url(#l)"/></g><path fill="#004265" d="M88.98 53.14h6.64v31.19h-6.64z"/><defs><path id="m" d="M64.33 53.14h31.3v6.64h-31.3z"/></defs><clipPath id="n"><use href="#m" overflow="visible"/></clipPath><path fill="#cb7a0a" d="M64.33 53.14h31.3v6.64h-31.3z" clip-path="url(#n)"/><path fill="#004265" d="M99.02 86.27c-19.92 0-36.12-16.2-36.12-36.12s16.2-36.12 36.12-36.12 36.12 16.2 36.12 36.12-16.2 36.12-36.12 36.12m0-68.35c-17.77 0-32.23 14.46-32.23 32.23s14.46 32.23 32.23 32.23 32.23-14.46 32.23-32.23-14.45-32.23-32.23-32.23M51.76 123.1l-.04-19.84-8.77 17.29H41.3l-8.73-17.29v19.84h-2.61V99.03h3.4l8.8 17.33 8.77-17.33h3.37v24.07zm25.78-8.02H62.76c.48 3.54 3.06 5.78 6.57 5.78 2.24 0 4.19-.79 5.61-2.27l1.48 1.58c-1.72 1.93-4.26 3.03-7.29 3.03-5.33 0-9.01-3.75-9.01-9.15s3.71-9.15 8.97-9.15c5.84-.03 8.73 4.03 8.45 10.18m-2.4-2.2c-.17-3.47-2.51-5.67-6.05-5.67-3.44 0-5.91 2.24-6.33 5.67zm24.34 10.21H96.8v-3.88c-1.34 2.54-3.82 4.02-7.05 4.02-5.16 0-8.73-3.82-8.73-9.21 0-5.43 3.58-9.18 8.7-9.18 3.23 0 5.74 1.48 7.08 4.06V97.58h2.68zm-2.68-9c0-3.95-2.72-6.81-6.53-6.81-3.85 0-6.57 2.85-6.57 6.81 0 3.92 2.72 6.74 6.57 6.74 3.81 0 6.53-2.82 6.53-6.74m13.13-14.31c0 1.07-.76 1.86-1.75 1.86-1 0-1.75-.79-1.75-1.86s.76-1.86 1.75-1.86c1 .01 1.75.8 1.75 1.86m-3.06 5.19h2.65v18.12h-2.65zm24 2.62-1.48 1.89c-1.38-1.31-3.2-2.1-5.4-2.1-3.75 0-6.43 2.72-6.43 6.67s2.68 6.7 6.43 6.7c2.37 0 4.33-.83 5.6-2.34l1.55 1.65c-1.62 1.96-4.13 3.13-7.25 3.13-5.26 0-8.97-3.75-8.97-9.15s3.75-9.15 8.97-9.15c2.93-.02 5.33.98 6.98 2.7m16.09 12.72c-1.44 1.96-3.75 2.92-6.64 2.92-3.75 0-6.15-2.41-6.15-5.54 0-3.16 2.51-5.16 6.77-5.19h5.95v-1.06c0-2.65-1.65-4.23-4.85-4.23-1.99 0-3.85.76-5.74 2.06l-1.13-1.96c2.34-1.55 4.3-2.44 7.39-2.44 4.47 0 6.95 2.37 6.98 6.26l.04 11.97h-2.61v-2.79zm-.03-3.47v-2.17h-5.64c-3.02 0-4.61.93-4.61 2.92s1.62 3.3 4.16 3.3c3.06 0 5.4-1.54 6.09-4.05m9.49-19.26h2.68v25.51h-2.68zM33.47 143.51c-.52.03-1.07.07-1.62.07h-6.4v7.6H22.7v-24.07h9.15c6.02 0 9.49 2.96 9.49 8.08 0 3.99-1.93 6.67-5.4 7.81l5.64 8.18h-3.13zm-1.61-2.58c4.37 0 6.84-1.93 6.84-5.67 0-3.64-2.47-5.5-6.84-5.5h-6.4v11.17zm31.63 2.23H48.71c.48 3.54 3.06 5.78 6.57 5.78 2.24 0 4.19-.79 5.6-2.27l1.48 1.58c-1.72 1.93-4.26 3.03-7.29 3.03-5.33 0-9.01-3.75-9.01-9.15s3.71-9.15 8.97-9.15c5.85-.03 8.73 4.03 8.46 10.18m-2.41-2.2c-.17-3.47-2.51-5.67-6.05-5.67-3.44 0-5.91 2.23-6.33 5.67zm18.3-6.36-1.03 2.13c-1.41-.89-3.23-1.48-4.92-1.48-2.03 0-3.58.72-3.58 2.41 0 4.02 10.11 1.96 10.11 8.46 0 3.58-3.16 5.16-6.64 5.16-2.58 0-5.23-.9-6.94-2.55l1.03-2.03c1.55 1.44 3.89 2.3 6.02 2.3s3.85-.79 3.89-2.58c.1-4.37-10.04-2.13-10.01-8.56 0-3.47 2.99-4.92 6.29-4.92 2.16.01 4.26.63 5.78 1.66m21.28 8.56H85.87c.48 3.54 3.06 5.78 6.57 5.78 2.24 0 4.19-.79 5.6-2.27l1.48 1.58c-1.72 1.93-4.26 3.03-7.29 3.03-5.33 0-9.01-3.75-9.01-9.15s3.71-9.15 8.97-9.15c5.86-.03 8.74 4.03 8.47 10.18m-2.41-2.2c-.17-3.47-2.51-5.67-6.05-5.67-3.44 0-5.91 2.23-6.33 5.67zm18.95 7.43c-1.44 1.96-3.75 2.92-6.64 2.92-3.75 0-6.15-2.41-6.15-5.54 0-3.16 2.51-5.16 6.77-5.19h5.95v-1.06c0-2.65-1.65-4.23-4.85-4.23-1.99 0-3.85.76-5.74 2.06l-1.13-1.96c2.34-1.55 4.3-2.44 7.39-2.44 4.47 0 6.94 2.37 6.98 6.26l.03 11.96h-2.61zm-.04-3.47v-2.17h-5.64c-3.03 0-4.61.93-4.61 2.92s1.62 3.3 4.16 3.3c3.07 0 5.4-1.54 6.09-4.05m12-7.84c1.2-2.65 3.44-4.09 6.5-4.13v2.72c-3.82-.07-6.19 2.3-6.5 5.88v9.63h-2.68v-18.12h2.68zm24.93-1.41-1.48 1.89c-1.38-1.31-3.2-2.1-5.4-2.1-3.75 0-6.43 2.72-6.43 6.67s2.68 6.7 6.43 6.7c2.37 0 4.33-.83 5.6-2.34l1.55 1.65c-1.62 1.96-4.13 3.13-7.26 3.13-5.26 0-8.97-3.75-8.97-9.15s3.75-9.15 8.97-9.15c2.93-.02 5.34.98 6.99 2.7m22.62 4.33v11.18h-2.68v-10.45c0-3.2-1.93-5.09-5.12-5.09-3.85.03-6.12 2.75-6.12 6.64v8.91h-2.68v-25.51h2.68v11.45c1.24-2.82 3.71-4.13 7.05-4.16 4.33-.02 6.87 2.66 6.87 7.03"/><use href="#o"/><use href="#o"/></svg>